<?xml version="1.0" encoding="utf-8"?>
<!-- Generator: Adobe Illustrator 16.0.4, SVG Export Plug-In . SVG Version: 6.00 Build 0)  -->
<!DOCTYPE svg PUBLIC "-//W3C//DTD SVG 1.1//EN" "http://www.w3.org/Graphics/SVG/1.1/DTD/svg11.dtd">
<svg version="1.1" id="Layer_1" xmlns="http://www.w3.org/2000/svg" xmlns:xlink="http://www.w3.org/1999/xlink" x="0px" y="0px"
	 width="90px" height="60px" viewBox="0 0 90 60" enable-background="new 0 0 90 60" xml:space="preserve">
<g opacity="0.8">
	<path fill="#F2F2F2" d="M86.968,55c0,2.75-2.25,5-5,5H8.033c-2.75,0-5-2.25-5-5V5c0-2.75,2.25-5,5-5h73.935c2.75,0,5,2.25,5,5V55z"
		/>
</g>
<g>
	<path fill="#2980B9" d="M62.529,50.807c-0.7,0-1.396-0.292-1.891-0.863L44.784,31.638c-0.814-0.939-0.814-2.334,0-3.273
		l15.854-18.307c0.903-1.043,2.483-1.157,3.526-0.253c1.044,0.904,1.157,2.483,0.253,3.526l-14.437,16.67L64.418,46.67
		c0.904,1.044,0.791,2.622-0.253,3.526C63.692,50.605,63.109,50.807,62.529,50.807z"/>
	<path fill="#2980B9" d="M43.328,50.807c-0.7,0-1.396-0.292-1.891-0.863L25.583,31.638c-0.814-0.939-0.814-2.334,0-3.273
		l15.855-18.307c0.904-1.043,2.482-1.157,3.526-0.253c1.044,0.904,1.157,2.483,0.253,3.526l-14.438,16.67L45.217,46.67
		c0.904,1.044,0.791,2.622-0.253,3.526C44.491,50.605,43.908,50.807,43.328,50.807z"/>
</g>
</svg>
