<?xml version="1.0" encoding="utf-8"?>
<!-- Generator: Adobe Illustrator 16.0.4, SVG Export Plug-In . SVG Version: 6.00 Build 0)  -->
<!DOCTYPE svg PUBLIC "-//W3C//DTD SVG 1.1//EN" "http://www.w3.org/Graphics/SVG/1.1/DTD/svg11.dtd">
<svg version="1.1" id="Layer_1" xmlns="http://www.w3.org/2000/svg" xmlns:xlink="http://www.w3.org/1999/xlink" x="0px" y="0px"
	 width="60px" height="60px" viewBox="0 0 60 60" enable-background="new 0 0 60 60" xml:space="preserve">
<path fill="#2980B9" d="M60,34.544v-9.09h-8.537c-0.565-2.685-1.624-5.189-3.076-7.413l6.038-6.04l-6.427-6.428l-6.039,6.039
	c-2.225-1.451-4.726-2.51-7.415-3.076V0h-9.09v8.536c-2.687,0.566-5.189,1.625-7.413,3.076L12,5.573l-6.426,6.428l6.039,6.04
	c-1.451,2.224-2.51,4.728-3.074,7.413H0v9.09h8.538c0.564,2.689,1.625,5.19,3.074,7.415l-6.039,6.039l6.428,6.427l6.04-6.038
	c2.224,1.452,4.728,2.511,7.413,3.076V60h9.09v-8.537c2.689-0.565,5.19-1.624,7.415-3.076l6.039,6.038l6.427-6.427l-6.038-6.039
	c1.452-2.225,2.511-4.726,3.076-7.415H60z M30,44.417c-7.963,0-14.416-6.454-14.416-14.418c0-7.962,6.453-14.415,14.416-14.415
	s14.417,6.453,14.417,14.415C44.417,37.963,37.963,44.417,30,44.417z"/>
</svg>
