<?xml version="1.0" encoding="utf-8"?>
<!-- Generator: Adobe Illustrator 16.0.4, SVG Export Plug-In . SVG Version: 6.00 Build 0)  -->
<!DOCTYPE svg PUBLIC "-//W3C//DTD SVG 1.1//EN" "http://www.w3.org/Graphics/SVG/1.1/DTD/svg11.dtd">
<svg version="1.1" id="Layer_1" xmlns="http://www.w3.org/2000/svg" xmlns:xlink="http://www.w3.org/1999/xlink" x="0px" y="0px"
	 width="60px" height="60px" viewBox="0 0 60 60" enable-background="new 0 0 60 60" xml:space="preserve">
<g>
	<g>
		<path fill-rule="evenodd" clip-rule="evenodd" fill="#2980B9" d="M46.484,39.735c0.456,0.475,0.888,0.943,1.335,1.398
			c3.571,3.565,7.164,7.122,10.711,10.718c1.907,1.938,1.948,4.845,0.18,6.653c-1.923,1.967-4.655,2.022-6.734-0.011
			c-3.744-3.651-7.444-7.348-11.106-11.078c-0.798-0.809-1.357-0.889-2.371-0.294c-16.17,9.459-35.976-0.355-38.306-18.949
			C-1.843,11.952,12.59-2.123,28.825,0.266c12.648,1.857,21.574,11.766,21.954,24.542c0.13,4.335-0.75,8.52-2.862,12.375
			C47.467,38.007,47.004,38.815,46.484,39.735z M41.439,25.457c0-8.82-7.157-16.102-15.894-16.171
			C16.863,9.211,9.372,16.572,9.332,25.212c-0.04,8.845,7.271,16.241,16.049,16.236C34.203,41.448,41.439,34.236,41.439,25.457z"/>
	</g>
</g>
</svg>
